<?xml version="1.0" standalone="no"?>
<!DOCTYPE svg PUBLIC "-//W3C//DTD SVG 20010904//EN"
 "http://www.w3.org/TR/2001/REC-SVG-20010904/DTD/svg10.dtd">
<svg version="1.0" xmlns="http://www.w3.org/2000/svg"
 width="260.000000pt" height="260.000000pt" viewBox="0 0 260.000000 260.000000"
 preserveAspectRatio="xMidYMid meet">
<metadata>
Created by potrace 1.11, written by Peter Selinger 2001-2013
</metadata>
<g transform="translate(0.000000,260.000000) scale(0.100000,-0.100000)"
fill="#000000" stroke="none">
<path d="M1562 2510 c-13 -5 -58 -40 -100 -78 -76 -66 -169 -135 -327 -240
-104 -69 -128 -105 -133 -197 -3 -61 1 -86 39 -200 64 -196 55 -272 -40 -358
-42 -38 -49 -41 -91 -37 -61 5 -162 81 -241 180 -63 80 -73 131 -44 227 16 55
35 92 131 254 114 194 122 274 33 314 -52 24 -131 16 -164 -15 -13 -12 -38
-60 -54 -106 -34 -94 -73 -173 -156 -319 -66 -117 -105 -207 -105 -246 0 -44
15 -71 70 -132 28 -31 55 -71 61 -89 14 -49 3 -292 -16 -363 -19 -71 -37 -95
-63 -79 -30 19 -69 104 -92 203 -61 266 -101 305 -208 200 -59 -58 -75 -121
-48 -196 40 -115 181 -374 232 -428 48 -51 94 -116 130 -184 61 -119 153 -199
339 -295 50 -25 122 -74 160 -107 115 -100 189 -129 345 -134 171 -7 248 24
376 151 83 82 102 95 244 168 191 97 285 159 328 216 30 39 33 49 27 84 -10
65 -61 106 -130 106 -51 0 -70 -13 -153 -101 -41 -43 -91 -90 -113 -105 -34
-23 -43 -25 -65 -15 -51 23 -65 87 -69 321 -2 96 -7 187 -13 201 -12 31 -65
77 -98 85 -69 17 -156 -39 -169 -110 -7 -32 21 -160 76 -356 60 -216 58 -240
-28 -321 -101 -96 -219 -116 -326 -57 -64 36 -65 40 -29 195 34 145 38 167 47
248 4 28 8 64 10 80 2 17 7 102 10 190 4 88 11 174 16 192 31 100 171 165 359
167 101 1 107 0 165 -32 63 -34 93 -58 215 -176 158 -151 240 -187 319 -140
87 52 88 198 0 241 -13 6 -62 23 -109 38 -46 14 -99 37 -117 51 -73 56 -101
178 -53 230 52 55 151 90 340 120 207 34 253 44 272 61 70 64 57 187 -24 229
-43 22 -68 25 -108 13 -37 -12 -351 -133 -385 -149 -11 -5 -45 -19 -75 -30
-30 -11 -64 -25 -75 -30 -11 -5 -60 -23 -110 -41 -199 -71 -270 -91 -336 -92
-57 -2 -70 1 -102 26 -20 15 -43 42 -51 60 -16 34 -33 104 -30 125 1 6 2 18 3
26 3 37 113 125 246 196 212 114 257 148 269 207 12 55 -8 101 -56 131 -39 24
-123 36 -156 22z m-776 -1276 c65 -38 122 -100 135 -146 39 -145 -15 -432 -94
-501 -49 -42 -116 -28 -181 37 -63 63 -80 106 -79 206 2 133 57 381 95 427 16
19 69 9 124 -23z"/>
</g>
</svg>
